<?xml version="1.0" encoding="utf-8"?>
<!-- Generator: Adobe Illustrator 22.1.0, SVG Export Plug-In . SVG Version: 6.00 Build 0)  -->
<svg version="1.1" id="Layer_1" xmlns="http://www.w3.org/2000/svg" xmlns:xlink="http://www.w3.org/1999/xlink" x="0px" y="0px"
	 viewBox="0 0 100 125" style="enable-background:new 0 0 100 125;" xml:space="preserve">
<path d="M50,5C25.2,5,5,25.2,5,50s20.2,45,45,45s45-20.2,45-45C95,25.2,74.8,5,50,5z M50,90.2c-22.2,0-40.2-18-40.2-40.2
	c0-22.2,18-40.2,40.2-40.2c22.2,0,40.2,18,40.2,40.2C90.2,72.2,72.2,90.2,50,90.2z"/>
<path d="M66.6,35.8c0-0.6-0.2-1.2-0.7-1.7c-0.9-0.9-2.5-0.9-3.4,0L50,46.6L37.5,34.1c-0.9-0.9-2.5-0.9-3.4,0
	c-0.5,0.5-0.7,1.1-0.7,1.7s0.2,1.2,0.7,1.7L46.6,50L34.1,62.5c-0.9,0.9-0.9,2.5,0,3.4c0.5,0.5,1.1,0.7,1.7,0.7s1.2-0.2,1.7-0.7
	L50,53.4l12.5,12.5c0.9,0.9,2.5,0.9,3.4,0c0.5-0.5,0.7-1.1,0.7-1.7c0-0.6-0.2-1.2-0.7-1.7L53.4,50l12.5-12.5
	C66.3,37,66.6,36.4,66.6,35.8z"/>
</svg>
